<?xml version="1.0" standalone="no"?>
<!DOCTYPE svg PUBLIC "-//W3C//DTD SVG 20010904//EN"
 "http://www.w3.org/TR/2001/REC-SVG-20010904/DTD/svg10.dtd">
<svg version="1.0" xmlns="http://www.w3.org/2000/svg"
 width="128.000000pt" height="128.000000pt" viewBox="0 0 128.000000 128.000000"
 preserveAspectRatio="xMidYMid meet">
<metadata>
Created by potrace 1.14, written by Peter Selinger 2001-2017
</metadata>
<g transform="translate(0.000000,128.000000) scale(0.100000,-0.100000)"
fill="#000000" stroke="none">
<path d="M100 1204 c0 -17 88 -222 183 -424 53 -113 97 -211 99 -219 2 -9 -12
-19 -37 -26 -23 -7 -65 -24 -95 -37 -30 -14 -83 -36 -117 -49 -35 -13 -63 -28
-63 -34 0 -6 72 -10 197 -10 l198 0 10 -32 c5 -18 16 -33 25 -34 31 -2 66 0
101 6 32 6 44 1 118 -49 45 -31 85 -56 89 -56 12 0 62 50 62 61 0 6 7 27 16
47 9 21 19 46 24 57 4 11 19 47 32 80 14 33 32 75 39 93 l14 33 35 -45 c129
-166 184 -225 196 -213 3 2 -13 33 -34 68 -22 35 -58 100 -82 144 -48 89 -71
127 -82 135 -3 3 -27 4 -51 2 -42 -4 -48 -8 -97 -73 -29 -38 -56 -69 -59 -69
-4 0 -49 41 -99 90 -51 50 -97 90 -101 90 -5 0 -37 -29 -72 -65 l-64 -66 -41
63 c-146 221 -314 493 -314 508 0 4 -7 13 -15 20 -8 7 -15 9 -15 4z"/>
</g>
</svg>
